<svg xmlns="http://www.w3.org/2000/svg" enable-background="new 0 0 2000 2000" viewBox="0 0 2000 2000"><path fill="#dbaa40" d="M759.29 1109.54v53.21c0 22.18-17.97 40.16-40.16 40.16h-18.88c-22.18 0-40.16-17.98-40.16-40.16v-53.21-53.21c0-22.18 17.98-40.16 40.16-40.16h18.88c22.19 0 40.16 17.98 40.16 40.16V1109.54zM1339.91 1109.54v53.21c0 22.18-17.98 40.16-40.16 40.16h-18.88c-22.19 0-40.16-17.98-40.16-40.16v-53.21-53.21c0-22.18 17.97-40.16 40.16-40.16h18.88c22.18 0 40.16 17.98 40.16 40.16V1109.54z"/><path fill="#ebb645" d="M1230.5 365.99v178.45h-87.16V410.79H856.66v133.65H769.5V365.99c0-22.19 17.98-40.16 40.16-40.16h380.69C1212.52 325.84 1230.5 343.81 1230.5 365.99zM1746.92 937.2v687.35c0 27.4-22.21 49.6-49.6 49.6H302.69c-27.4 0-49.6-22.21-49.6-49.6V937.2l243.62 172.33h163.39v53.21c0 22.18 17.98 40.16 40.16 40.16h18.88c22.19 0 40.16-17.98 40.16-40.16v-53.21h111.06 370.36v53.21c0 22.18 17.97 40.16 40.16 40.16h18.88c22.18 0 40.16-17.98 40.16-40.16v-53.21h163.39L1746.92 937.2z"/><path fill="#ffe07e" d="M1746.92,594.05V937.2l-243.62,172.33h-163.39v-53.21c0-22.18-17.98-40.16-40.16-40.16h-18.88c-22.19,0-40.16,17.98-40.16,40.16v53.21H870.35H759.29v-53.21c0-22.18-17.97-40.16-40.16-40.16h-18.88c-22.18,0-40.16,17.98-40.16,40.16v53.21H496.71L253.08,937.2V594.05c0-27.4,22.21-49.6,49.6-49.6H769.5h87.16h286.68h87.16h466.81C1724.71,544.44,1746.92,566.65,1746.92,594.05z"/><path d="M1697.31,1695.25H302.69c-38.98,0-70.69-31.71-70.69-70.69V594.05c0-38.98,31.71-70.69,70.69-70.69h1394.62c38.98,0,70.69,31.71,70.69,70.69v1030.52C1768,1663.54,1736.29,1695.25,1697.31,1695.25z M302.69,565.53c-15.73,0-28.52,12.79-28.52,28.52v1030.52c0,15.73,12.79,28.52,28.52,28.52h1394.62c15.73,0,28.52-12.8,28.52-28.52V594.05c0-15.73-12.8-28.52-28.52-28.52H302.69z"/><path d="M1240.71 1130.62H759.29c-11.64 0-21.08-9.44-21.08-21.08s9.44-21.08 21.08-21.08h481.41c11.64 0 21.08 9.44 21.08 21.08S1252.35 1130.62 1240.71 1130.62zM1503.29 1130.62h-163.39c-11.64 0-21.08-9.44-21.08-21.08s9.44-21.08 21.08-21.08h156.69l238.15-168.46c9.51-6.72 22.66-4.47 29.39 5.04 6.72 9.51 4.47 22.66-5.04 29.39l-243.62 172.33C1511.91 1129.27 1507.66 1130.62 1503.29 1130.62zM660.09 1130.62H496.71c-4.36 0-8.61-1.35-12.17-3.87L240.91 954.41c-9.51-6.72-11.76-19.88-5.04-29.39 6.72-9.51 19.88-11.76 29.39-5.04l238.15 168.46h156.69c11.64 0 21.08 9.44 21.08 21.08S671.74 1130.62 660.09 1130.62z"/><path d="M719.14 1223.98h-18.89c-33.77 0-61.24-27.47-61.24-61.24v-106.42c0-33.77 27.47-61.24 61.24-61.24h18.89c33.77 0 61.24 27.47 61.24 61.24v106.42C780.38 1196.51 752.91 1223.98 719.14 1223.98zM700.25 1037.25c-10.52 0-19.07 8.56-19.07 19.07v106.42c0 10.52 8.56 19.07 19.07 19.07h18.89c10.52 0 19.07-8.56 19.07-19.07v-106.42c0-10.52-8.56-19.07-19.07-19.07H700.25zM1299.75 1223.98h-18.89c-33.77 0-61.24-27.47-61.24-61.24v-106.42c0-33.77 27.47-61.24 61.24-61.24h18.89c33.77 0 61.24 27.47 61.24 61.24v106.42C1360.99 1196.51 1333.52 1223.98 1299.75 1223.98zM1280.86 1037.25c-10.52 0-19.07 8.56-19.07 19.07v106.42c0 10.52 8.56 19.07 19.07 19.07h18.89c10.52 0 19.07-8.56 19.07-19.07v-106.42c0-10.52-8.56-19.07-19.07-19.07H1280.86zM1230.5 565.53c-11.64 0-21.08-9.44-21.08-21.08V365.99c0-10.52-8.56-19.07-19.07-19.07H809.65c-10.52 0-19.07 8.56-19.07 19.07v178.45c0 11.64-9.44 21.08-21.08 21.08-11.64 0-21.08-9.44-21.08-21.08V365.99c0-33.77 27.47-61.24 61.24-61.24h380.69c33.77 0 61.24 27.47 61.24 61.24v178.45C1251.58 556.09 1242.15 565.53 1230.5 565.53z"/><path d="M1143.34,565.53c-11.64,0-21.08-9.44-21.08-21.08V431.87H877.74v112.57c0,11.64-9.44,21.08-21.08,21.08c-11.64,0-21.08-9.44-21.08-21.08V410.79c0-11.64,9.44-21.08,21.08-21.08h286.68c11.64,0,21.08,9.44,21.08,21.08v133.65C1164.42,556.09,1154.98,565.53,1143.34,565.53z"/></svg>